<svg width="256" height="256" viewBox="0 0 256 256" fill="none" xmlns="http://www.w3.org/2000/svg">
<rect width="256" height="256" rx="16" fill="white"/>
<path d="M47.6875 86.625C59.4792 86.625 68.0833 89.1667 73.5 94.25C78.9167 99.2917 81.625 106.25 81.625 115.125C81.625 119.125 81.0208 122.958 79.8125 126.625C78.6042 130.25 76.625 133.479 73.875 136.312C71.1667 139.146 67.5417 141.396 63 143.062C58.4583 144.688 52.8542 145.5 46.1875 145.5H37.875V178H18.5V86.625H47.6875ZM46.6875 102.5H37.875V129.625H44.25C47.875 129.625 51.0208 129.146 53.6875 128.188C56.3542 127.229 58.4167 125.729 59.875 123.688C61.3333 121.646 62.0625 119.021 62.0625 115.812C62.0625 111.312 60.8125 107.979 58.3125 105.812C55.8125 103.604 51.9375 102.5 46.6875 102.5ZM128.062 86.625C139.854 86.625 148.458 89.1667 153.875 94.25C159.292 99.2917 162 106.25 162 115.125C162 119.125 161.396 122.958 160.188 126.625C158.979 130.25 157 133.479 154.25 136.312C151.542 139.146 147.917 141.396 143.375 143.062C138.833 144.688 133.229 145.5 126.562 145.5H118.25V178H98.875V86.625H128.062ZM127.062 102.5H118.25V129.625H124.625C128.25 129.625 131.396 129.146 134.062 128.188C136.729 127.229 138.792 125.729 140.25 123.688C141.708 121.646 142.438 119.021 142.438 115.812C142.438 111.312 141.188 107.979 138.688 105.812C136.188 103.604 132.312 102.5 127.062 102.5ZM208.438 86.625C220.229 86.625 228.833 89.1667 234.25 94.25C239.667 99.2917 242.375 106.25 242.375 115.125C242.375 119.125 241.771 122.958 240.562 126.625C239.354 130.25 237.375 133.479 234.625 136.312C231.917 139.146 228.292 141.396 223.75 143.062C219.208 144.688 213.604 145.5 206.938 145.5H198.625V178H179.25V86.625H208.438ZM207.438 102.5H198.625V129.625H205C208.625 129.625 211.771 129.146 214.438 128.188C217.104 127.229 219.167 125.729 220.625 123.688C222.083 121.646 222.812 119.021 222.812 115.812C222.812 111.312 221.562 107.979 219.062 105.812C216.562 103.604 212.688 102.5 207.438 102.5Z" fill="#003B73"/>
</svg>
